<svg width="216" height="72" viewBox="0 0 216 72" fill="none" xmlns="http://www.w3.org/2000/svg">
<path d="M14.4775 71.995C13.9211 71.995 13.3781 71.9877 12.8261 71.9751C11.6824 71.96 10.5415 71.8586 9.41258 71.6718C8.35991 71.487 7.34018 71.1433 6.387 70.652C5.44253 70.1649 4.5811 69.5262 3.8357 68.7603C3.07946 68.0034 2.44985 67.1256 1.97181 66.1616C1.48857 65.1913 1.15413 64.1513 0.980151 63.0778C0.792334 61.9243 0.690745 60.7579 0.67626 59.5887C0.664572 59.1963 0.649414 57.8898 0.649414 57.8898V14.9029C0.649414 14.9029 0.665485 13.6163 0.67626 13.2382C0.690175 12.0709 0.791216 10.9063 0.978507 9.75466C1.15283 8.6782 1.48755 7.63519 1.97108 6.66175C2.44728 5.69838 3.07332 4.81988 3.82493 4.06028C4.57574 3.29347 5.43997 2.65143 6.38609 2.15757C7.3371 1.66797 8.35492 1.32679 9.40545 1.14545C10.5381 0.956798 11.683 0.854849 12.8306 0.840457L14.4785 0.817383H202.162L203.829 0.841016C204.966 0.854782 206.101 0.955926 207.223 1.14359C208.284 1.32726 209.313 1.67088 210.275 2.16315C212.17 3.1584 213.712 4.73298 214.685 6.66621C215.161 7.63298 215.49 8.66754 215.662 9.73475C215.852 10.8959 215.958 12.0695 215.98 13.2464C215.985 13.7733 215.985 14.3394 215.985 14.9029C216 15.6007 216 16.2648 216 16.9346V55.8795C216 56.5555 216 57.2152 215.985 57.8803C215.985 58.4854 215.985 59.0398 215.978 59.6103C215.957 60.7662 215.852 61.919 215.666 63.0594C215.495 64.1407 215.163 65.1888 214.68 66.167C214.198 67.1205 213.572 67.9907 212.825 68.7456C212.079 69.5156 211.216 70.1581 210.269 70.6483C209.31 71.1433 208.283 71.4882 207.223 71.6714C206.094 71.8593 204.953 71.9607 203.809 71.9749C203.263 71.9879 202.717 71.9946 202.171 71.9948L200.191 71.9985L14.4775 71.995Z" fill="black"/>
<path d="M39.9999 36.6655C40.0176 35.1251 40.3827 33.6148 41.0612 32.275C41.7396 30.9353 42.7094 29.8097 43.8804 29.0028C43.1365 27.8122 42.1552 26.8323 41.0143 26.1411C39.8734 25.4498 38.6045 25.0662 37.3082 25.0207C34.5429 24.6954 31.8622 26.8751 30.4529 26.8751C29.0166 26.8751 26.8471 25.053 24.5109 25.1069C22.9997 25.1616 21.527 25.6541 20.2361 26.5363C18.9453 27.4186 17.8804 28.6605 17.1451 30.1412C13.9604 36.3209 16.3359 45.4027 19.3868 50.3978C20.9131 52.8439 22.6969 55.576 25.0311 55.4791C27.3151 55.373 28.1681 53.8468 30.9253 53.8468C33.6569 53.8468 34.4572 55.4791 36.8387 55.4175C39.2897 55.373 40.8338 52.9607 42.3066 50.4916C43.4033 48.7488 44.2472 46.8225 44.807 44.7843C43.3831 44.1093 42.1679 42.9795 41.3131 41.5358C40.4582 40.092 40.0015 38.3982 39.9999 36.6655ZM35.5017 21.7355C36.8381 19.9376 37.4964 17.6267 37.337 15.2935C35.2953 15.5338 33.4094 16.6274 32.055 18.3564C31.3928 19.201 30.8856 20.1836 30.5624 21.2481C30.2393 22.3125 30.1065 23.4379 30.1716 24.5599C31.1929 24.5717 32.2031 24.3237 33.1264 23.8344C34.0497 23.3452 34.8618 22.6275 35.5017 21.7355ZM68.8724 49.287H61.0779L59.206 55.4813H55.9044L63.2874 32.5636H66.7175L74.1004 55.4813H70.7426L68.8724 49.287ZM61.8851 46.4285H68.0636L65.0178 36.3755H64.9325L61.8851 46.4285ZM90.0449 47.1279C90.0449 52.3201 87.5651 55.6561 83.8231 55.6561C82.8752 55.7117 81.9324 55.467 81.1028 54.95C80.2731 54.433 79.5902 53.6646 79.1321 52.7328H79.0613V61.0089H76.0011V38.7725H78.9633V41.5517H79.0197C79.4988 40.6244 80.1932 39.86 81.0292 39.3398C81.8651 38.8196 82.8112 38.5632 83.7668 38.5977C87.5506 38.5977 90.0449 41.9499 90.0449 47.1278V47.1279ZM86.8994 47.1279C86.8994 43.7451 85.3396 41.521 82.9596 41.521C80.6213 41.521 79.0486 43.7918 79.0486 47.1278C79.0486 50.4946 80.6213 52.7492 82.9596 52.7492C85.3396 52.7492 86.8994 50.5414 86.8994 47.1278V47.1279ZM106.454 47.1279C106.454 52.3201 103.974 55.6561 100.232 55.6561C99.2844 55.7117 98.3417 55.467 97.5121 54.95C96.6825 54.433 95.9995 53.6646 95.5415 52.7328H95.4707V61.0089H92.4104V38.7725H95.3725V41.5517H95.4288C95.908 40.6244 96.6024 39.86 97.4383 39.3398C98.2743 38.8196 99.2204 38.5632 100.176 38.5977C103.96 38.5977 106.454 41.9499 106.454 47.1278V47.1279ZM103.309 47.1279C103.309 43.7451 101.749 41.521 99.3688 41.521C97.0304 41.521 95.4578 43.7918 95.4578 47.1278C95.4578 50.4946 97.0304 52.7492 99.3688 52.7492C101.749 52.7492 103.309 50.5414 103.309 47.1278V47.1279ZM117.299 49.096C117.526 51.3686 119.496 52.8609 122.188 52.8609C124.767 52.8609 126.623 51.3686 126.623 49.3193C126.623 47.5404 125.504 46.4754 122.854 45.7455L120.204 45.0299C116.449 44.0134 114.705 42.0454 114.705 38.8517C114.705 34.8974 117.78 32.1816 122.146 32.1816C126.467 32.1816 129.429 34.8974 129.529 38.8517H126.44C126.255 36.5647 124.568 35.1841 122.103 35.1841C119.638 35.1841 117.951 36.5809 117.951 38.6138C117.951 40.2342 119.028 41.1876 121.664 41.9173L123.917 42.5374C128.112 43.6493 129.856 45.5382 129.856 48.8902C129.856 53.1779 126.808 55.8634 121.961 55.8634C117.426 55.8634 114.364 53.2409 114.167 49.0958L117.299 49.096ZM136.46 34.8185V38.7725H139.295V41.4886H136.46V50.7C136.46 52.131 137.028 52.7978 138.274 52.7978C138.611 52.7912 138.947 52.7647 139.281 52.7184V55.4184C138.72 55.5357 138.151 55.5887 137.581 55.5768C134.563 55.5768 133.385 54.3063 133.385 51.0657V41.4886H131.218V38.7725H133.385V34.8185H136.46ZM140.937 47.1279C140.937 41.8706 143.7 38.5671 148.008 38.5671C152.331 38.5671 155.081 41.8706 155.081 47.1279C155.081 52.3995 152.345 55.6886 148.008 55.6886C143.673 55.6886 140.937 52.3995 140.937 47.1279ZM151.962 47.1279C151.962 43.5216 150.488 41.393 148.008 41.393C145.528 41.393 144.055 43.5377 144.055 47.1279C144.055 50.7487 145.528 52.8609 148.008 52.8609C150.488 52.8609 151.962 50.7487 151.962 47.1279ZM157.604 38.7725H160.522V41.6165H160.593C160.791 40.7282 161.255 39.9433 161.908 39.3935C162.561 38.8438 163.363 38.5628 164.179 38.5977C164.532 38.5963 164.884 38.6392 165.228 38.7256V41.9337C164.783 41.7812 164.318 41.7112 163.853 41.7265C163.408 41.7062 162.965 41.7941 162.554 41.984C162.142 42.1738 161.772 42.4612 161.469 42.8265C161.166 43.1917 160.938 43.626 160.799 44.0997C160.66 44.5734 160.614 45.0752 160.664 45.5707V55.4813H157.604V38.7725ZM179.337 50.5737C178.926 53.607 176.29 55.6886 172.918 55.6886C168.581 55.6886 165.889 52.432 165.889 47.2071C165.889 41.9662 168.595 38.5671 172.789 38.5671C176.914 38.5671 179.508 41.7427 179.508 46.8088V47.9839H168.978V48.1911C168.929 48.8061 168.998 49.4256 169.179 50.0085C169.361 50.5914 169.651 51.1243 170.03 51.572C170.409 52.0196 170.869 52.3717 171.38 52.6048C171.89 52.8379 172.438 52.9467 172.989 52.924C173.712 53 174.437 52.8123 175.058 52.3888C175.678 51.9653 176.16 51.3288 176.432 50.5737H179.337ZM168.992 45.5869H176.446C176.473 45.034 176.399 44.4807 176.226 43.9617C176.054 43.4427 175.788 42.9692 175.444 42.571C175.101 42.1728 174.688 41.8585 174.231 41.6477C173.774 41.4369 173.283 41.3342 172.789 41.3461C172.291 41.3428 171.797 41.4501 171.336 41.6619C170.874 41.8736 170.455 42.1857 170.102 42.5799C169.749 42.9742 169.47 43.4429 169.279 43.959C169.089 44.4751 168.991 45.0284 168.992 45.5869ZM61.5016 15.3133C62.1432 15.2617 62.787 15.3703 63.3866 15.6313C63.9862 15.8923 64.5266 16.2992 64.9689 16.8227C65.4112 17.3462 65.7443 17.9731 65.9442 18.6583C66.1441 19.3435 66.2058 20.0699 66.1249 20.7851C66.1249 24.303 64.4283 26.3253 61.5016 26.3253H57.9524V15.3131L61.5016 15.3133ZM59.4786 24.7679H61.3311C61.7896 24.7986 62.2484 24.7143 62.6741 24.5213C63.0998 24.3282 63.4818 24.0311 63.7921 23.6518C64.1025 23.2724 64.3335 22.8202 64.4683 22.3282C64.6031 21.8362 64.6383 21.3166 64.5714 20.8074C64.6335 20.3002 64.5947 19.7839 64.4578 19.2955C64.321 18.807 64.0894 18.3586 63.7797 17.9822C63.47 17.6058 63.0899 17.3109 62.6666 17.1185C62.2433 16.9261 61.7872 16.8411 61.3311 16.8694H59.4786V24.7679ZM67.8488 22.1665C67.8022 21.6203 67.8579 21.0693 68.0125 20.5487C68.167 20.0282 68.4169 19.5495 68.7461 19.1436C69.0754 18.7376 69.4767 18.4132 69.9243 18.1912C70.372 17.9692 70.8561 17.8546 71.3456 17.8546C71.8352 17.8546 72.3193 17.9692 72.7669 18.1912C73.2146 18.4132 73.6159 18.7376 73.9452 19.1436C74.2744 19.5495 74.5243 20.0282 74.6788 20.5487C74.8333 21.0693 74.8891 21.6203 74.8424 22.1665C74.8901 22.7132 74.8351 23.2651 74.681 23.7866C74.527 24.3082 74.2773 24.7878 73.9479 25.1947C73.6186 25.6016 73.2169 25.9268 72.7687 26.1493C72.3206 26.3718 71.8358 26.4868 71.3456 26.4868C70.8554 26.4868 70.3707 26.3718 69.9225 26.1493C69.4743 25.9268 69.0727 25.6016 68.7433 25.1947C68.414 24.7878 68.1643 24.3082 68.0102 23.7866C67.8562 23.2651 67.8012 22.7132 67.8488 22.1665ZM73.3373 22.1665C73.3373 20.365 72.6152 19.3116 71.3481 19.3116C70.076 19.3116 69.3605 20.365 69.3605 22.1665C69.3605 23.9823 70.0762 25.0276 71.3481 25.0276C72.6152 25.0276 73.3373 23.9751 73.3373 22.1665ZM84.1391 26.3252H82.6209L81.0884 20.2047H80.9727L79.4467 26.3252H77.943L75.8991 18.0148H77.3833L78.7117 24.356H78.8211L80.3456 18.0148H81.7494L83.2739 24.356H83.3897L84.7115 18.0148H86.175L84.1391 26.3252ZM87.894 18.0149H89.3027V19.335H89.4121C89.5976 18.8609 89.9105 18.4634 90.3071 18.1979C90.7038 17.9325 91.1645 17.8124 91.6249 17.8544C91.9857 17.824 92.348 17.885 92.6849 18.0328C93.0218 18.1806 93.3247 18.4115 93.5712 18.7083C93.8177 19.0052 94.0014 19.3604 94.1088 19.7476C94.2162 20.1348 94.2445 20.5441 94.1915 20.9453V26.325H92.7281V21.3572C92.7281 20.0218 92.2102 19.3576 91.128 19.3576C90.883 19.3448 90.6385 19.3915 90.4111 19.4946C90.1838 19.5976 89.979 19.7545 89.8109 19.9545C89.6427 20.1546 89.5151 20.393 89.4369 20.6534C89.3586 20.9139 89.3315 21.1902 89.3574 21.4635V26.3252H87.894V18.0149ZM96.5233 14.7707H97.9865V26.3252H96.5233V14.7707ZM100.021 22.1665C99.9743 21.6203 100.03 21.0692 100.185 20.5485C100.339 20.0279 100.589 19.5492 100.918 19.1431C101.248 18.7371 101.649 18.4127 102.097 18.1907C102.544 17.9687 103.029 17.854 103.518 17.854C104.008 17.854 104.492 17.9687 104.94 18.1907C105.387 18.4127 105.789 18.7371 106.118 19.1431C106.447 19.5492 106.697 20.0279 106.852 20.5485C107.006 21.0692 107.062 21.6203 107.015 22.1665C107.063 22.7131 107.008 23.2649 106.853 23.7862C106.699 24.3076 106.45 24.7871 106.12 25.1938C105.791 25.6005 105.389 25.9255 104.941 26.1479C104.493 26.3703 104.008 26.4852 103.518 26.4852C103.028 26.4852 102.543 26.3703 102.095 26.1479C101.647 25.9255 101.246 25.6005 100.916 25.1938C100.587 24.7871 100.337 24.3076 100.183 23.7862C100.029 23.2649 99.9735 22.7131 100.021 22.1665ZM105.509 22.1665C105.509 20.365 104.787 19.3116 103.52 19.3116C102.248 19.3116 101.533 20.365 101.533 22.1665C101.533 23.9823 102.248 25.0276 103.52 25.0276C104.787 25.0276 105.509 23.9751 105.509 22.1665ZM108.556 23.9751C108.556 22.4791 109.55 21.6167 111.314 21.4941L113.322 21.3644V20.647C113.322 19.7693 112.805 19.2738 111.804 19.2738C110.988 19.2738 110.421 19.6098 110.259 20.1975H108.842C108.992 18.7699 110.19 17.8546 111.872 17.8546C113.731 17.8546 114.779 18.8918 114.779 20.647V26.3252H113.371V25.1573H113.255C113.02 25.5762 112.69 25.9177 112.299 26.147C111.907 26.3762 111.469 26.4849 111.028 26.4621C110.716 26.4984 110.402 26.4612 110.104 26.3528C109.806 26.2445 109.532 26.0675 109.3 25.8332C109.067 25.5988 108.88 25.3124 108.752 24.9924C108.624 24.6724 108.557 24.3258 108.556 23.9751ZM113.322 23.2649V22.5701L111.512 22.6998C110.491 22.7764 110.027 23.1658 110.027 23.8983C110.027 24.6463 110.606 25.0816 111.402 25.0816C111.636 25.1081 111.871 25.0817 112.095 25.004C112.319 24.9264 112.527 24.799 112.706 24.6295C112.885 24.46 113.032 24.2518 113.138 24.0174C113.244 23.783 113.307 23.5271 113.322 23.2649ZM116.703 22.1665C116.703 19.5405 117.907 17.8771 119.781 17.8771C120.244 17.8531 120.704 17.9775 121.107 18.2357C121.509 18.4939 121.838 18.8752 122.055 19.335H122.164V14.7705H123.627V26.325H122.225V25.0119H122.109C121.876 25.4686 121.536 25.8452 121.125 26.1008C120.715 26.3564 120.25 26.4813 119.781 26.4619C117.894 26.4619 116.703 24.7984 116.703 22.1663V22.1665ZM118.214 22.1665C118.214 23.9289 118.956 24.9897 120.195 24.9897C121.429 24.9897 122.191 23.9138 122.191 22.1735C122.191 20.4416 121.421 19.3504 120.195 19.3504C118.964 19.3504 118.214 20.4182 118.214 22.1665ZM129.682 22.1665C129.635 21.6203 129.691 21.0693 129.845 20.5487C130 20.0282 130.25 19.5495 130.579 19.1436C130.908 18.7376 131.31 18.4132 131.757 18.1912C132.205 17.9692 132.689 17.8546 133.179 17.8546C133.668 17.8546 134.152 17.9692 134.6 18.1912C135.048 18.4132 135.449 18.7376 135.778 19.1436C136.107 19.5495 136.357 20.0282 136.512 20.5487C136.666 21.0693 136.722 21.6203 136.675 22.1665C136.723 22.7132 136.668 23.2651 136.514 23.7866C136.36 24.3082 136.11 24.7878 135.781 25.1947C135.452 25.6016 135.05 25.9268 134.602 26.1493C134.154 26.3718 133.669 26.4868 133.179 26.4868C132.688 26.4868 132.204 26.3718 131.756 26.1493C131.307 25.9268 130.906 25.6016 130.576 25.1947C130.247 24.7878 129.997 24.3082 129.843 23.7866C129.689 23.2651 129.634 22.7132 129.682 22.1665ZM135.17 22.1665C135.17 20.365 134.448 19.3116 133.181 19.3116C131.909 19.3116 131.194 20.365 131.194 22.1665C131.194 23.9823 131.909 25.0276 133.181 25.0276C134.448 25.0276 135.17 23.9751 135.17 22.1665ZM138.639 18.0149H140.048V19.335H140.157C140.343 18.8609 140.656 18.4634 141.052 18.1979C141.449 17.9325 141.91 17.8124 142.37 17.8544C142.731 17.824 143.093 17.885 143.43 18.0328C143.767 18.1806 144.07 18.4115 144.316 18.7083C144.563 19.0052 144.746 19.3604 144.854 19.7476C144.961 20.1348 144.989 20.5441 144.937 20.9453V26.325H143.473V21.3572C143.473 20.0218 142.955 19.3576 141.873 19.3576C141.628 19.3448 141.384 19.3915 141.156 19.4946C140.929 19.5976 140.724 19.7545 140.556 19.9545C140.388 20.1546 140.26 20.393 140.182 20.6534C140.104 20.9139 140.077 21.1902 140.102 21.4635V26.3252H138.639L138.639 18.0149ZM153.206 15.9459V18.0528H154.812V19.4342H153.206V23.7073C153.206 24.5778 153.525 24.9591 154.254 24.9591C154.44 24.9584 154.627 24.9457 154.812 24.9211V26.2873C154.549 26.34 154.283 26.368 154.016 26.3711C152.389 26.3711 151.74 25.7294 151.74 24.1273V19.4342H150.563V18.0526H151.74V15.9461L153.206 15.9459ZM156.811 14.7707H158.261V19.3504H158.377C158.572 18.8718 158.893 18.472 159.298 18.2056C159.702 17.9392 160.17 17.8191 160.638 17.8616C160.997 17.8397 161.356 17.9068 161.689 18.0583C162.022 18.2097 162.321 18.4416 162.565 18.7376C162.809 19.0335 162.992 19.3861 163.1 19.7702C163.208 20.1544 163.24 20.5606 163.192 20.9598V26.3252H161.727V21.3644C161.727 20.0369 161.175 19.3648 160.141 19.3648C159.89 19.3417 159.637 19.3804 159.4 19.4783C159.163 19.5763 158.949 19.731 158.771 19.9316C158.593 20.1323 158.456 20.3741 158.371 20.6401C158.285 20.9061 158.252 21.1899 158.274 21.4716V26.3252H156.811V14.7707ZM171.725 24.0812C171.526 24.8407 171.095 25.4977 170.508 25.9373C169.92 26.3768 169.214 26.5709 168.512 26.4855C168.023 26.5 167.538 26.3951 167.089 26.1782C166.64 25.9614 166.239 25.6376 165.913 25.2295C165.587 24.8214 165.344 24.3387 165.202 23.8149C165.059 23.2911 165.019 22.7387 165.086 22.1962C165.021 21.6519 165.061 21.0984 165.204 20.573C165.346 20.0476 165.587 19.5626 165.912 19.1509C166.236 18.7392 166.635 18.4104 167.083 18.1867C167.53 17.963 168.015 17.8497 168.505 17.8544C170.568 17.8544 171.813 19.4342 171.813 22.0437V22.616H166.577V22.7079C166.554 23.0129 166.588 23.3199 166.677 23.6091C166.767 23.8984 166.909 24.1636 167.095 24.3878C167.28 24.6119 167.506 24.7901 167.757 24.9108C168.008 25.0315 168.279 25.0921 168.552 25.0887C168.902 25.1358 169.256 25.0651 169.571 24.8857C169.885 24.7063 170.144 24.4263 170.316 24.0812H171.725ZM166.577 21.4031H170.322C170.341 21.1242 170.307 20.8441 170.223 20.5807C170.139 20.3173 170.007 20.0765 169.835 19.8738C169.663 19.671 169.455 19.5108 169.225 19.4035C168.994 19.2961 168.747 19.2439 168.497 19.2503C168.244 19.2468 167.993 19.3 167.758 19.407C167.524 19.5139 167.311 19.6723 167.132 19.873C166.953 20.0736 166.812 20.3124 166.716 20.5752C166.621 20.838 166.574 21.1195 166.577 21.4031Z" fill="white"/>
</svg>
