<svg width="216" height="72" viewBox="0 0 216 72" fill="none" xmlns="http://www.w3.org/2000/svg">
<path d="M207.375 71.9985H7.97596C3.58923 71.9985 0 67.9946 0 63.1009V9.71507C0 4.82132 3.58916 0.817383 7.97596 0.817383H207.375C211.761 0.817383 215.351 4.82132 215.351 9.71507V63.1008C215.351 67.9946 211.761 71.9985 207.375 71.9985Z" fill="black"/>
<path d="M75.6421 19.2108C75.6421 20.7152 75.2463 21.9132 74.4536 22.8068C73.5532 23.8695 72.3798 24.4012 70.9373 24.4012C69.5558 24.4012 68.3813 23.8625 67.4154 22.7837C66.4478 21.7056 65.9648 20.3687 65.9648 18.7737C65.9648 17.178 66.4478 15.8419 67.4154 14.763C68.3813 13.685 69.5558 13.1455 70.9373 13.1455C71.6227 13.1455 72.279 13.2964 72.9021 13.5973C73.5252 13.899 74.0249 14.2994 74.3988 14.8009L73.5575 15.7485C72.9239 14.8963 72.0515 14.4705 70.9373 14.4705C69.9298 14.4705 69.0586 14.869 68.3234 15.6665C67.588 16.4647 67.2204 17.5 67.2204 18.7737C67.2204 20.0475 67.588 21.0827 68.3234 21.881C69.0586 22.6785 69.9297 23.0769 70.9373 23.0769C72.0061 23.0769 72.8971 22.6763 73.6105 21.874C74.0736 21.3513 74.3414 20.6248 74.4131 19.6918H70.9372V18.3977H75.5753C75.6201 18.6791 75.6419 18.9492 75.6419 19.2108" fill="white"/>
<path d="M75.6412 19.2117H75.4817C75.4804 20.6818 75.0989 21.8236 74.3399 22.6808L74.3383 22.6822L74.3376 22.6837C73.4658 23.7097 72.3453 24.2204 70.9364 24.2225C69.5919 24.2204 68.4664 23.7041 67.5267 22.6576C66.589 21.609 66.1254 20.3289 66.1236 18.7746C66.1254 17.2196 66.589 15.9402 67.5267 14.8923C68.4664 13.8451 69.5919 13.3281 70.9364 13.3259C71.6013 13.3259 72.2345 13.472 72.8382 13.763C73.4426 14.0562 73.9201 14.4405 74.2758 14.9176L74.398 14.8017L74.2852 14.6748L73.4439 15.623L73.5567 15.7493L73.6795 15.6344C73.0164 14.74 72.0856 14.2891 70.9365 14.2918C69.8916 14.2904 68.9725 14.7106 68.2122 15.5384C67.4446 16.3688 67.0589 17.4623 67.0602 18.7746C67.0589 20.087 67.4446 21.1804 68.2122 22.0109C68.9725 22.8386 69.8916 23.2588 70.9364 23.2574C72.0406 23.2596 72.9816 22.8379 73.7225 22.0018C74.2172 21.4434 74.4977 20.6699 74.5712 19.7081L74.5861 19.5132H71.096V18.5782H75.5744V18.3986L75.4173 18.4302C75.461 18.7024 75.4816 18.9612 75.4816 19.2117H75.8006C75.8006 18.9387 75.7782 18.6582 75.7314 18.3665L75.7078 18.2191H70.777V19.8723H74.4122V19.6927L74.2534 19.6773C74.183 20.5808 73.9275 21.2612 73.4969 21.748C72.8115 22.5167 71.9703 22.8961 70.9365 22.8983C69.9664 22.8968 69.1432 22.5208 68.4335 21.7528C67.7306 20.9875 67.381 20.0105 67.3792 18.7746C67.381 17.5387 67.7306 16.5616 68.4335 15.7964C69.1432 15.0284 69.9663 14.6524 70.9365 14.6509C72.0152 14.6538 72.8297 15.055 73.4347 15.8651L73.5469 16.0152L74.5108 14.9288L74.6142 14.8124L74.5201 14.6867C74.1282 14.1608 73.606 13.7433 72.9642 13.4334C72.3211 13.1225 71.6426 12.9668 70.9365 12.9668C69.5184 12.9654 68.2945 13.5265 67.3019 14.637C66.3055 15.7452 65.8033 17.1382 65.8047 18.7746C65.8033 20.4102 66.3055 21.8041 67.3025 22.9129C68.2945 24.0226 69.5184 24.5831 70.9365 24.5817C72.4133 24.5831 73.6385 24.031 74.5681 22.9318L74.4527 22.8077L74.5656 22.9347C75.3918 22.0053 75.8018 20.7498 75.8007 19.2117H75.6412H75.6412ZM82.9939 14.7113H78.6352V18.1273H82.5659V19.4219H78.6352V22.8379H82.9939V24.1615H77.4064V13.3877H82.9939V14.7113Z" fill="white"/>
<path d="M82.994 14.7101V14.5306H78.4758V18.3057H82.4065V19.2407L78.4758 19.2411V23.0162H82.8344V23.9807H77.5661V13.5661H82.8344V14.7101H82.994V14.5306V14.7101H83.1535V13.207H77.2471V24.3398H83.1535V22.6571H78.7948V19.6003H82.7255V17.9466H78.7948V14.8897H83.1535V14.7101H82.994ZM88.1802 24.1603H86.9495V14.7101H84.2763V13.3865H90.8534V14.7101H88.1802V24.1602" fill="white"/>
<path d="M88.1796 24.1603V23.9807H87.1084V14.5306H84.4353V13.5662H90.6933V14.5306H88.0201V24.1602H88.1796V23.9807V24.1602H88.3392V14.8897H91.0124V13.207H84.1162V14.8896H86.7894V24.3397H88.3392V24.1601H88.1796V24.1603ZM95.6117 24.1603V13.3865H96.8411V24.1601H95.6117" fill="white"/>
<path d="M95.6107 24.1603H95.7702V13.5661H96.6805V23.9807H95.6107V24.1602H95.7702H95.6107V24.3398H96.9996V13.207H95.4512V24.3398H95.6107V24.1602V24.1603ZM102.295 24.1603H101.065V14.7101H98.3917V13.3865H104.969V14.7101H102.295V24.1602" fill="white"/>
<path d="M102.297 24.1606V23.981H101.225V14.5309H98.5524V13.5665H104.81V14.5309H102.137V24.1605H102.297V23.981V24.1605H102.456V14.89H105.129V13.2073H98.2334V14.8899H100.906V24.34H102.456V24.1605H102.297V24.1606ZM111.311 21.8663C112.019 22.6736 112.886 23.0768 113.911 23.0768C114.936 23.0768 115.803 22.6736 116.511 21.8663C117.22 21.059 117.575 20.027 117.575 18.7737C117.575 17.5205 117.22 16.4885 116.511 15.6812C115.803 14.8738 114.936 14.4705 113.911 14.4705C112.886 14.4705 112.019 14.8738 111.311 15.6812C110.603 16.4885 110.248 17.5204 110.248 18.7737C110.248 20.027 110.603 21.059 111.311 21.8663ZM117.42 22.7682C116.479 23.8574 115.309 24.4012 113.911 24.4012C112.511 24.4012 111.342 23.8574 110.403 22.7682C109.461 21.6803 108.993 20.3485 108.993 18.7737C108.993 17.1989 109.461 15.8669 110.403 14.7792C111.342 13.6897 112.511 13.1455 113.911 13.1455C115.302 13.1455 116.469 13.6926 117.414 14.7862C118.358 15.8797 118.831 17.2088 118.831 18.7737C118.831 20.3485 118.359 21.6803 117.42 22.7682Z" fill="white"/>
<path d="M111.311 21.8672L111.197 21.9935C111.932 22.8331 112.848 23.2596 113.911 23.2574C114.973 23.2596 115.89 22.8331 116.624 21.9935C117.363 21.1531 117.735 20.0659 117.734 18.7746C117.735 17.4834 117.363 16.3961 116.624 15.5557C115.89 14.7161 114.973 14.2897 113.911 14.2918C112.848 14.2897 111.932 14.7161 111.197 15.5557C110.459 16.3961 110.087 17.4834 110.089 18.7746C110.087 20.0658 110.459 21.1531 111.197 21.9935L111.311 21.8672L111.424 21.7409C110.747 20.9658 110.409 19.9908 110.408 18.7746C110.409 17.5584 110.747 16.5834 111.424 15.8082C112.107 15.0333 112.922 14.6531 113.911 14.651C114.898 14.6531 115.716 15.0333 116.397 15.8082C117.075 16.5834 117.413 17.5584 117.415 18.7746C117.413 19.9907 117.075 20.9658 116.397 21.7409C115.716 22.516 114.898 22.8961 113.911 22.8982C112.922 22.8961 112.107 22.516 111.424 21.7409L111.311 21.8672ZM117.42 22.7691L117.306 22.6444C116.391 23.6993 115.273 24.2204 113.911 24.2225C112.548 24.2204 111.429 23.6993 110.517 22.6444L110.512 22.6387L110.517 22.6444C109.604 21.5858 109.153 20.3093 109.152 18.7746C109.153 17.2398 109.604 15.9633 110.517 14.9049C111.429 13.8499 112.548 13.3281 113.911 13.326C115.264 13.3281 116.38 13.8521 117.3 14.9125C118.216 15.9759 118.669 17.2504 118.671 18.7746C118.669 20.3093 118.217 21.5858 117.306 22.6444L117.42 22.7691L117.535 22.8939C118.502 21.776 118.991 20.3892 118.99 18.7746C118.991 17.1692 118.5 15.7852 117.529 14.6623C116.557 13.5349 115.339 12.9649 113.911 12.9668C112.475 12.9649 111.254 13.5323 110.288 14.6553V14.6545C109.319 15.7732 108.832 17.16 108.833 18.7746C108.832 20.3892 109.319 21.776 110.288 22.8946L110.292 22.8997L110.288 22.8939C111.254 24.0169 112.475 24.5831 113.911 24.5817C115.346 24.5831 116.567 24.0169 117.535 22.8939L117.42 22.7691ZM120.556 24.1615V13.3877H122.053L126.705 21.7689H126.758L126.705 19.6926V13.3877H127.935V24.1614H126.652L121.785 15.374H121.732L121.785 17.451V24.1614H120.556" fill="white"/>
<path d="M120.557 24.1603H120.717V13.5661H121.966L126.617 21.9473H126.923L126.865 19.6889V13.5662H127.777V23.9807H126.741L121.875 15.1934H121.569L121.627 17.4528V23.9807H120.557V24.1602H120.717H120.557V24.3398H121.946V17.447L121.893 15.3681L121.733 15.3729V15.5525H121.786V15.3729L121.651 15.4684L126.564 24.3398H128.096V13.207H126.546V19.6936L126.599 21.7726L126.759 21.7677V21.5882H126.706V21.7677L126.841 21.6724L122.143 13.207H120.398V24.3398H120.558V24.1602L120.557 24.1603ZM170.584 54.6856H173.56V32.2384H170.584L170.584 54.6856ZM197.394 40.3244L193.982 50.0564H193.88L190.338 40.3243H187.132L192.442 53.9267L189.415 61.4928H192.521L200.704 40.3243L197.394 40.3244ZM180.514 52.1361C179.537 52.1361 178.178 51.5875 178.178 50.2297C178.178 48.4971 179.872 47.8329 181.334 47.8329C182.643 47.8329 183.257 48.1505 184.053 48.5842C183.822 50.6631 182.232 52.1361 180.514 52.1361ZM180.873 39.8333C178.717 39.8333 176.486 40.9021 175.562 43.2703L178.204 44.5117C178.768 43.2703 179.82 42.8655 180.924 42.8655C182.463 42.8655 184.028 43.9057 184.053 45.7539V45.9847C183.514 45.6381 182.361 45.1184 180.949 45.1184C178.102 45.1184 175.202 46.8796 175.202 50.1721C175.202 53.1756 177.537 55.1107 180.153 55.1107C182.155 55.1107 183.257 54.0999 183.951 52.9161H184.053V54.6485H186.926V46.0421C186.926 42.0575 184.285 39.8333 180.873 39.8333ZM162.477 43.0569H158.243V35.3626H162.477C164.702 35.3626 165.966 37.4365 165.966 39.2096C165.966 40.9492 164.702 43.0569 162.477 43.0569ZM162.4 32.2384H155.268V54.6856H158.243V46.1811H162.4C165.699 46.1811 168.942 43.4925 168.942 39.2096C168.942 34.9269 165.699 32.2384 162.4 32.2384ZM123.508 52.1402C121.452 52.1402 119.73 50.2022 119.73 47.5404C119.73 44.8506 121.452 42.8831 123.508 42.8831C125.538 42.8831 127.131 44.8505 127.131 47.5404C127.131 50.2022 125.538 52.1402 123.508 52.1402H123.508ZM126.926 41.5813H126.823C126.155 40.6847 124.869 39.8748 123.251 39.8748C119.858 39.8748 116.749 43.2302 116.749 47.5404C116.749 51.8219 119.858 55.1486 123.251 55.1486C124.869 55.1486 126.155 54.3384 126.823 53.4132H126.926V54.5124C126.926 57.4346 125.538 58.9966 123.302 58.9966C121.478 58.9966 120.347 57.5208 119.884 56.2771L117.289 57.492C118.034 59.5169 120.013 62.0049 123.302 62.0049C126.797 62.0049 129.753 59.6902 129.753 54.0495V40.3377H126.926V41.5813ZM131.809 54.6856H134.79V32.2376H131.809V54.6856ZM139.184 47.2802C139.107 44.3293 141.215 42.8254 142.731 42.8254C143.914 42.8254 144.915 43.4904 145.249 44.4459L139.184 47.2802ZM148.436 44.7347C147.871 43.0274 146.148 39.8748 142.628 39.8748C139.133 39.8748 136.229 42.97 136.229 47.5116C136.229 51.7931 139.107 55.1486 142.962 55.1486C146.072 55.1486 147.871 53.0078 148.616 51.7642L146.303 50.0282C145.533 51.3013 144.478 52.1402 142.962 52.1402C141.446 52.1402 140.367 51.3589 139.672 49.8262L148.744 45.6024L148.436 44.7347ZM76.1607 42.218V45.4578H83.048C82.8424 47.2802 82.3027 48.6108 81.4802 49.5365C80.4782 50.6651 78.9105 51.9088 76.1607 51.9088C71.9202 51.9088 68.6053 48.0614 68.6053 43.2883C68.6053 38.5153 71.9202 34.6675 76.1607 34.6675C78.4481 34.6675 80.1181 35.6802 81.3518 36.9819L83.382 34.6969C81.6603 32.8451 79.3728 31.4277 76.1607 31.4277C70.3525 31.4277 65.4697 36.7506 65.4697 43.2883C65.4697 49.8262 70.3525 55.1486 76.1607 55.1486C79.2962 55.1486 81.6603 53.992 83.5104 51.8219C85.4122 49.6811 86.0036 46.6728 86.0036 44.2431C86.0036 43.4904 85.9524 42.7967 85.849 42.218H76.1607ZM93.8337 52.1402C91.7773 52.1402 90.004 50.2309 90.004 47.5116C90.004 44.7634 91.7773 42.8831 93.8337 42.8831C95.8892 42.8831 97.6626 44.7634 97.6626 47.5116C97.6626 50.231 95.8892 52.1402 93.8337 52.1402ZM93.8337 39.8748C90.0812 39.8748 87.0229 43.0856 87.0229 47.5116C87.0229 51.9088 90.0812 55.1486 93.8337 55.1486C97.5854 55.1486 100.644 51.9088 100.644 47.5116C100.644 43.0856 97.5854 39.8748 93.8337 39.8748ZM108.69 52.1402C106.634 52.1402 104.861 50.2309 104.861 47.5116C104.861 44.7634 106.634 42.8831 108.69 42.8831C110.746 42.8831 112.519 44.7634 112.519 47.5116C112.519 50.231 110.746 52.1402 108.69 52.1402H108.69ZM108.69 39.8748C104.938 39.8748 101.88 43.0856 101.88 47.5116C101.88 51.9088 104.938 55.1486 108.69 55.1486C112.442 55.1486 115.5 51.9088 115.5 47.5116C115.5 43.0856 112.442 39.8748 108.69 39.8748H108.69Z" fill="white"/>
<path d="M16.7631 14.4823C16.2277 15.026 15.9082 15.9328 15.9082 17.1365V16.8644V56.5853V56.3236C15.9082 57.4353 16.1823 58.2937 16.6465 58.8466L16.7649 58.9743V58.9748C17.1406 59.3565 17.6224 59.5591 18.1745 59.5584C18.714 59.5584 19.321 59.3648 19.9616 58.956L43.1161 44.1471L51.0695 39.0598C52.0797 38.4138 52.6467 37.5805 52.7415 36.7318V36.7283C52.6467 35.8776 52.0797 35.0449 51.0696 34.3989L43.1155 29.3122L19.9617 14.5033C19.3197 14.0937 18.7123 13.8994 18.1714 13.8994C17.6199 13.8994 17.1388 14.1014 16.7632 14.4823H16.7631Z" fill="#00C1FF"/>
<path d="M16.765 58.9727L16.6465 58.845C16.1823 58.2922 15.9082 57.4336 15.9082 56.322V56.5836V16.8726V17.1348C15.9082 15.9311 16.2277 15.0243 16.7631 14.4807L36.5272 36.7274L16.765 58.9727Z" fill="url(#paint0_linear_1302_21932)"/>
<path d="M43.1163 44.1475L36.5273 36.7294L43.1157 29.3126L51.0698 34.3992C52.0798 35.0453 52.6469 35.8779 52.7417 36.7287V36.7321C52.6469 37.5809 52.0798 38.4143 51.0698 39.0601L43.1163 44.1474" fill="url(#paint1_linear_1302_21932)"/>
<path d="M18.1731 59.5713C17.6211 59.5719 17.1393 59.3691 16.7637 58.9876V58.987L36.5259 36.7418L43.1148 44.1598L19.9602 58.9688C19.3196 59.3777 18.7126 59.5713 18.1731 59.5713Z" fill="url(#paint2_linear_1302_21932)"/>
<path d="M36.5279 36.7275L16.7637 14.4809C17.1394 14.1 17.6205 13.898 18.1719 13.898C18.7128 13.898 19.3203 14.0922 19.9622 14.5018L43.1162 29.3107L36.5278 36.7275" fill="url(#paint3_linear_1302_21932)"/>
<path d="M18.1751 59.8203C17.623 59.8203 17.1406 59.6176 16.7649 59.2361L16.7642 59.2367C16.7627 59.235 16.761 59.2333 16.7593 59.2319L16.6565 59.1189C16.6533 59.1153 16.6503 59.1112 16.6465 59.1071L16.765 58.9737C17.1407 59.3552 17.6224 59.558 18.1746 59.5572C18.714 59.5572 19.321 59.3637 19.9616 58.9548L43.1161 44.1459L43.2645 44.3129L43.1142 44.409L19.9615 59.2171C19.3777 59.5896 18.8224 59.7838 18.3208 59.8162C18.2723 59.8189 18.2237 59.8202 18.1751 59.8202" fill="url(#paint4_linear_1302_21932)"/>
<path d="M16.6466 59.1123C16.1823 58.5595 15.9082 57.7017 15.9082 56.5893V56.3277C15.9082 57.4393 16.1823 58.2978 16.6466 58.8507L16.7651 58.9783L16.6466 59.1123Z" fill="url(#paint5_linear_1302_21932)"/>
<path d="M43.2655 44.3183L43.1172 44.1512L51.0707 39.064C52.0808 38.4182 52.6479 37.5848 52.7427 36.7361C52.7427 37.0476 52.6809 37.359 52.5583 37.6621C52.3108 38.273 51.8149 38.8502 51.0708 39.3264L43.2655 44.3184" fill="url(#paint6_linear_1302_21932)"/>
<path d="M52.7414 36.7275C52.6466 35.8767 52.0796 35.0442 51.0695 34.3981L43.1152 29.3115L43.2636 29.1444H43.2642L51.0695 34.1365C52.1831 34.8491 52.7408 35.7882 52.7414 36.7275Z" fill="url(#paint7_linear_1302_21932)"/>
<path d="M15.9082 17.1357V16.8614C15.9082 16.7624 15.9106 16.6657 15.9151 16.5717V16.5675C15.9151 16.5662 15.9151 16.5648 15.9155 16.5634V16.5528C15.9636 15.5953 16.2278 14.8484 16.6465 14.3497L16.7632 14.4815C16.2278 15.0252 15.9082 15.9321 15.9082 17.1357Z" fill="url(#paint8_linear_1302_21932)"/>
<path d="M43.1155 29.3076L19.9616 14.4986C19.3197 14.0891 18.7122 13.8948 18.1713 13.8948C17.6198 13.8948 17.1387 14.0968 16.7631 14.4777L16.6465 14.3458C16.6829 14.3024 16.7207 14.2606 16.7599 14.2204C16.7612 14.2189 16.7631 14.2175 16.7643 14.2161C17.137 13.8381 17.613 13.6361 18.1595 13.6325H18.1713C18.7122 13.6325 19.3197 13.8268 19.9616 14.2365L43.2645 29.14L43.2638 29.1406L43.1155 29.3076Z" fill="url(#paint9_linear_1302_21932)"/>
<defs>
<linearGradient id="paint0_linear_1302_21932" x1="28.5387" y1="16.4529" x2="9.52358" y2="33.4001" gradientUnits="userSpaceOnUse">
<stop stop-color="#00A0FF"/>
<stop offset="0.00657" stop-color="#00A1FF"/>
<stop offset="0.2601" stop-color="#00BEFF"/>
<stop offset="0.5122" stop-color="#00D2FF"/>
<stop offset="0.7604" stop-color="#00DFFF"/>
<stop offset="1" stop-color="#00E3FF"/>
</linearGradient>
<linearGradient id="paint1_linear_1302_21932" x1="53.9723" y1="36.6012" x2="15.3735" y2="36.6012" gradientUnits="userSpaceOnUse">
<stop stop-color="#FFE000"/>
<stop offset="0.4087" stop-color="#FFBD00"/>
<stop offset="0.7754" stop-color="#FFA500"/>
<stop offset="1" stop-color="#FF9C00"/>
</linearGradient>
<linearGradient id="paint2_linear_1302_21932" x1="39.6167" y1="43.7946" x2="7.42167" y2="72.279" gradientUnits="userSpaceOnUse">
<stop stop-color="#FF3A44"/>
<stop offset="1" stop-color="#C31162"/>
</linearGradient>
<linearGradient id="paint3_linear_1302_21932" x1="11.6699" y1="11.1827" x2="26.021" y2="23.8994" gradientUnits="userSpaceOnUse">
<stop stop-color="#32A071"/>
<stop offset="0.0685" stop-color="#2DA771"/>
<stop offset="0.4762" stop-color="#15CF74"/>
<stop offset="0.8009" stop-color="#06E775"/>
<stop offset="1" stop-color="#00F076"/>
</linearGradient>
<linearGradient id="paint4_linear_1302_21932" x1="39.6036" y1="48.9262" x2="13.7982" y2="71.9255" gradientUnits="userSpaceOnUse">
<stop stop-color="#CC2E36"/>
<stop offset="1" stop-color="#9C0E4E"/>
</linearGradient>
<linearGradient id="paint5_linear_1302_21932" x1="18.5414" y1="16.4587" x2="1.78918" y2="31.3914" gradientUnits="userSpaceOnUse">
<stop stop-color="#008DE0"/>
<stop offset="0.00657" stop-color="#008DE0"/>
<stop offset="0.2601" stop-color="#00A7E0"/>
<stop offset="0.5122" stop-color="#00B8E0"/>
<stop offset="0.7604" stop-color="#00C4E0"/>
<stop offset="1" stop-color="#00C7E0"/>
</linearGradient>
<linearGradient id="paint6_linear_1302_21932" x1="53.9734" y1="36.7344" x2="15.3741" y2="36.7344" gradientUnits="userSpaceOnUse">
<stop stop-color="#E0C500"/>
<stop offset="0.4087" stop-color="#E0A600"/>
<stop offset="0.7754" stop-color="#E09100"/>
<stop offset="1" stop-color="#E08900"/>
</linearGradient>
<linearGradient id="paint7_linear_1302_21932" x1="53.9721" y1="36.7293" x2="15.3728" y2="36.7293" gradientUnits="userSpaceOnUse">
<stop stop-color="#FFE840"/>
<stop offset="0.4087" stop-color="#FFCE40"/>
<stop offset="0.7754" stop-color="#FFBC40"/>
<stop offset="1" stop-color="#FFB540"/>
</linearGradient>
<linearGradient id="paint8_linear_1302_21932" x1="18.5251" y1="16.4843" x2="2.4724" y2="30.1731" gradientUnits="userSpaceOnUse">
<stop stop-color="#40B8FF"/>
<stop offset="0.00657" stop-color="#40B9FF"/>
<stop offset="0.2601" stop-color="#40CEFF"/>
<stop offset="0.5122" stop-color="#40DDFF"/>
<stop offset="0.7604" stop-color="#40E7FF"/>
<stop offset="1" stop-color="#40EAFF"/>
</linearGradient>
<linearGradient id="paint9_linear_1302_21932" x1="11.6404" y1="15.8843" x2="23.1637" y2="26.1546" gradientUnits="userSpaceOnUse">
<stop stop-color="#65B895"/>
<stop offset="0.0685" stop-color="#62BD95"/>
<stop offset="0.4762" stop-color="#50DB97"/>
<stop offset="0.8009" stop-color="#44ED98"/>
<stop offset="1" stop-color="#40F498"/>
</linearGradient>
</defs>
</svg>
