<svg width="16" height="16" viewBox="0 0 16 16" fill="none" xmlns="http://www.w3.org/2000/svg">
<path d="M12.8863 4.36557C14.6036 4.36557 16 5.76196 16 7.47928V8.52179C16 10.2157 14.6397 11.5972 12.9532 11.6334V10.3146C13.9118 10.2795 14.6812 9.48884 14.6812 8.52179V7.47928C14.6812 6.4899 13.8757 5.68438 12.8863 5.68438H10.3156V3.11371C10.3156 2.12434 9.5101 1.31881 8.52072 1.31881H7.47822C6.48884 1.31881 5.68332 2.12434 5.68332 3.11371V5.02444C5.68332 6.47078 6.31881 6.74283 7.75664 7.22104C7.90861 7.27205 8.0627 7.32306 8.21785 7.37726C8.36557 7.42933 8.51328 7.47821 8.65887 7.5271C9.91924 7.9458 11.3305 8.41658 11.5909 10.3156C11.6546 10.864 11.6334 11.6344 11.6334 11.6344V12.8863C11.6334 14.6026 10.237 16 8.51966 16H7.47715C5.76089 16 4.36344 14.6036 4.36344 12.8863V11.6344H3.11371C1.39639 11.6344 0 10.238 0 8.52072V7.47822C0 5.78427 1.36026 4.40276 3.04676 4.36663V5.68544C2.0882 5.72051 1.31881 6.51116 1.31881 7.47822V8.52072C1.31881 9.5101 2.12434 10.3156 3.11371 10.3156H5.68438V12.8863C5.68438 13.8757 6.4899 14.6812 7.47928 14.6812H8.52179C9.51116 14.6812 10.3167 13.8757 10.3167 12.8863V10.9756C10.3167 9.52922 9.68119 9.25717 8.24336 8.77896C8.09139 8.72795 7.9373 8.67694 7.78215 8.62274C7.63443 8.57067 7.48672 8.52179 7.34113 8.4729C6.08076 8.0542 4.6695 7.58342 4.40914 5.68438C4.34538 5.13603 4.36663 4.36557 4.36663 4.36557V3.11371C4.36557 1.39639 5.76196 0 7.47928 0H8.52179C10.238 0 11.6355 1.39639 11.6355 3.11371V4.36557H12.8863Z" fill="#008DFF"/>
</svg>
